<svg width="198" height="29" viewBox="0 0 198 29" fill="none" xmlns="http://www.w3.org/2000/svg">
<path d="M7.988 22.7C5.87867 22.7 4.18 22.392 2.892 21.776C1.62267 21.1413 0.988 20.264 0.988 19.144C0.988 18.7333 1.09067 18.3507 1.296 17.996C1.52 17.6227 1.81867 17.324 2.192 17.1C2.77067 18.2387 3.55467 19.116 4.544 19.732C5.552 20.3293 6.644 20.628 7.82 20.628C9.42533 20.628 10.7133 20.348 11.684 19.788C12.6547 19.228 13.14 18.4253 13.14 17.38C13.14 16.8573 12.944 16.4 12.552 16.008C12.1787 15.616 11.6933 15.2893 11.096 15.028C10.5173 14.748 9.724 14.4213 8.716 14.048C7.33467 13.544 6.21467 13.068 5.356 12.62C4.516 12.172 3.788 11.5747 3.172 10.828C2.556 10.0627 2.248 9.12 2.248 8C2.248 6.78667 2.65867 5.704 3.48 4.752C4.32 3.78133 5.48667 3.02533 6.98 2.484C8.492 1.94267 10.228 1.672 12.188 1.672C13.3267 1.672 14.344 1.79333 15.24 2.036C16.1547 2.26 16.864 2.57733 17.368 2.988C17.8907 3.39867 18.152 3.87467 18.152 4.416C18.152 5.2 17.8907 5.80667 17.368 6.236C16.864 6.64667 16.192 6.852 15.352 6.852C14.4933 6.852 13.7747 6.6 13.196 6.096C12.6173 5.57333 12.1787 4.81733 11.88 3.828C9.99467 4.052 8.52 4.50933 7.456 5.2C6.392 5.872 5.86 6.67467 5.86 7.608C5.86 8.09333 6.04667 8.52267 6.42 8.896C6.79333 9.25067 7.26 9.55867 7.82 9.82C8.38 10.0627 9.17333 10.38 10.2 10.772C11.5627 11.2573 12.6827 11.724 13.56 12.172C14.4373 12.62 15.184 13.2173 15.8 13.964C16.4347 14.7107 16.752 15.6347 16.752 16.736C16.752 17.8187 16.4067 18.8173 15.716 19.732C15.044 20.628 14.0453 21.3467 12.72 21.888C11.4133 22.4293 9.836 22.7 7.988 22.7ZM23.271 22.7C22.6176 22.7 22.1323 22.532 21.815 22.196C21.4976 21.86 21.339 21.3653 21.339 20.712C21.339 20.0587 21.4976 18.836 21.815 17.044C22.1323 15.2333 22.6643 12.396 23.411 8.532C23.5976 7.59867 23.7843 6.66533 23.971 5.732C24.1576 4.78 24.335 3.83733 24.503 2.904L23.271 1.504C23.7003 1.13067 24.2136 0.841333 24.811 0.636C25.427 0.411999 25.987 0.299999 26.491 0.299999C27.0136 0.299999 27.387 0.421332 27.611 0.663999C27.835 0.887999 27.947 1.28 27.947 1.84C27.947 2.19467 27.891 2.66133 27.779 3.24C27.667 3.8 27.4803 4.60267 27.219 5.648C26.715 7.68267 26.351 9.26 26.127 10.38L26.407 10.52C27.4336 8.672 28.619 7.328 29.963 6.488C31.307 5.62933 32.6603 5.2 34.023 5.2C35.2176 5.2 36.1136 5.508 36.711 6.124C37.3083 6.72133 37.607 7.65467 37.607 8.924C37.607 9.67067 37.523 10.4453 37.355 11.248C37.2056 12.0507 36.9816 13.0587 36.683 14.272C36.3283 15.6907 36.067 16.8573 35.899 17.772C35.731 18.668 35.647 19.564 35.647 20.46C35.647 21.1693 35.7683 21.6547 36.011 21.916C35.4323 22.4387 34.835 22.7 34.219 22.7C33.5656 22.7 33.0896 22.532 32.791 22.196C32.4923 21.86 32.343 21.3653 32.343 20.712C32.343 20.0027 32.4176 19.2093 32.567 18.332C32.735 17.436 32.9683 16.2787 33.267 14.86C33.547 13.684 33.7523 12.704 33.883 11.92C34.0323 11.1173 34.107 10.4267 34.107 9.848C34.107 8.336 33.5376 7.58 32.399 7.58C31.2603 7.58 30.0843 8.14 28.871 9.26C27.6763 10.38 26.6776 11.9293 25.875 13.908C25.0723 15.868 24.671 18.052 24.671 20.46C24.671 21.1507 24.783 21.636 25.007 21.916C24.4656 22.4387 23.887 22.7 23.271 22.7ZM48.6755 22.7C47.3315 22.7 46.1462 22.4013 45.1195 21.804C44.1115 21.188 43.3275 20.3293 42.7675 19.228C42.2262 18.108 41.9555 16.8107 41.9555 15.336C41.9555 13.3573 42.3662 11.6027 43.1875 10.072C44.0275 8.54133 45.1942 7.34667 46.6875 6.488C48.1808 5.62933 49.8702 5.2 51.7555 5.2C52.5395 5.2 53.2582 5.27467 53.9115 5.424C54.1168 5.72267 54.2382 6.16133 54.2755 6.74C52.4088 6.74 50.8128 7.11333 49.4875 7.86C48.1622 8.60667 47.1542 9.652 46.4635 10.996C45.7728 12.3213 45.4275 13.8333 45.4275 15.532C45.4275 17.1933 45.7355 18.4907 46.3515 19.424C46.9675 20.3573 47.8448 20.824 48.9835 20.824C50.0848 20.824 51.0742 20.516 51.9515 19.9C52.8475 19.284 53.5755 18.4067 54.1355 17.268C54.7142 16.1293 55.0782 14.804 55.2275 13.292C54.4622 12.8067 53.9022 12.2747 53.5475 11.696C53.2115 11.1173 53.0435 10.436 53.0435 9.652C53.0435 9.18533 53.1368 8.76533 53.3235 8.392C53.5288 8 53.7995 7.70133 54.1355 7.496C54.4715 7.272 54.8542 7.16 55.2835 7.16C56.1422 7.16 56.8142 7.54267 57.2995 8.308C57.7848 9.07333 58.0275 10.1373 58.0275 11.5C58.0275 13.5533 57.6075 15.4387 56.7675 17.156C55.9462 18.8547 54.8168 20.208 53.3795 21.216C51.9608 22.2053 50.3928 22.7 48.6755 22.7ZM68.6846 22C67.7512 22 66.8646 21.9253 66.0246 21.776C65.8006 21.384 65.6886 20.9453 65.6886 20.46C67.7419 20.46 69.5432 20.1053 71.0926 19.396C72.6606 18.668 73.8646 17.66 74.7046 16.372C75.5632 15.0653 75.9926 13.5627 75.9926 11.864C75.9926 10.5947 75.7219 9.60533 75.1806 8.896C74.6579 8.18667 73.9206 7.832 72.9686 7.832C72.0166 7.832 71.1299 8.28 70.3086 9.176C69.5059 10.0533 68.7779 11.3507 68.1246 13.068C67.4712 14.7667 66.8832 16.8667 66.3606 19.368L67.0326 8.7L68.4886 9.764C69.1419 8.308 69.9819 7.188 71.0086 6.404C72.0352 5.60133 73.1366 5.2 74.3126 5.2C75.3206 5.2 76.2072 5.47067 76.9726 6.012C77.7566 6.55333 78.3539 7.328 78.7646 8.336C79.1939 9.32533 79.4086 10.4733 79.4086 11.78C79.4086 13.6653 78.9326 15.392 77.9806 16.96C77.0472 18.5093 75.7592 19.7413 74.1166 20.656C72.4739 21.552 70.6632 22 68.6846 22ZM64.4286 27.6C63.8499 27.6 63.4112 27.404 63.1126 27.012C62.8139 26.6387 62.6646 26.06 62.6646 25.276C62.6646 24.548 62.9166 22.4853 63.4206 19.088C63.9432 15.672 64.5779 11.9107 65.3246 7.804L64.0926 6.404C64.5406 6.04933 65.0632 5.76 65.6606 5.536C66.2579 5.312 66.8086 5.2 67.3126 5.2C67.8352 5.2 68.2086 5.32133 68.4326 5.564C68.6566 5.788 68.7686 6.18 68.7686 6.74C68.7686 7.11333 68.7032 7.62667 68.5726 8.28C68.4606 8.91467 68.2646 9.82933 67.9846 11.024C67.3499 13.7867 66.8459 16.2693 66.4726 18.472C66.1179 20.656 65.9406 22.8773 65.9406 25.136C65.9406 25.4907 65.9966 25.8173 66.1086 26.116C66.2206 26.4333 66.3606 26.6667 66.5286 26.816C66.2486 27.0773 65.9312 27.2733 65.5766 27.404C65.2219 27.5347 64.8392 27.6 64.4286 27.6ZM95.5862 22.728C94.8956 22.728 94.3916 22.5507 94.0742 22.196C93.7569 21.8413 93.5982 21.2627 93.5982 20.46C93.5982 19.396 93.7476 17.772 94.0462 15.588C94.3449 13.404 94.9142 9.72667 95.7542 4.556L94.8862 2.848C96.1369 2.064 97.2476 1.672 98.2182 1.672C99.0396 1.672 99.4502 2.16667 99.4502 3.156C99.4502 3.324 99.3662 3.93067 99.1982 4.976C99.0302 6.00267 98.8436 7.15067 98.6382 8.42C98.0969 11.836 97.6956 14.3747 97.4342 16.036C97.1916 17.6973 97.0702 18.864 97.0702 19.536C97.0702 20.0773 97.1262 20.5533 97.2382 20.964C97.3502 21.3747 97.5182 21.72 97.7422 22C96.9956 22.4853 96.2769 22.728 95.5862 22.728ZM100.57 14.16C99.6182 14.16 98.4516 13.9733 97.0702 13.6L97.4622 11.668C98.4516 11.8173 99.6369 11.892 101.018 11.892L103.09 11.388C103.09 11.444 103.09 11.5093 103.09 11.584C103.09 11.64 103.1 11.696 103.118 11.752C103.118 11.808 103.118 11.864 103.118 11.92C103.118 11.976 103.118 12.0227 103.118 12.06C103.118 12.732 102.894 13.2547 102.446 13.628C102.017 13.9827 101.392 14.16 100.57 14.16ZM103.65 5.704C102.512 5.704 101.41 5.62933 100.346 5.48C99.3009 5.312 98.2742 5.04133 97.2662 4.668L97.9382 2.988C99.5062 2.988 100.841 2.91333 101.942 2.764C103.044 2.61467 104.509 2.35333 106.338 1.98C106.45 1.96133 106.553 1.94267 106.646 1.924C106.758 1.88667 106.87 1.85867 106.982 1.84C107.076 2.15733 107.122 2.54933 107.122 3.016C107.122 3.93067 106.786 4.612 106.114 5.06C105.461 5.48933 104.64 5.704 103.65 5.704ZM107.019 22.672C106.497 22.672 106.095 22.4667 105.815 22.056C105.554 21.664 105.423 21.0947 105.423 20.348C105.423 18.892 106.095 16.7453 107.439 13.908C108.802 11.0707 110.79 7.64533 113.403 3.632L112.535 2.456C113.077 2.12 113.581 1.87733 114.047 1.728C114.533 1.57867 115.046 1.504 115.587 1.504C116.353 1.504 116.829 1.69067 117.015 2.064C117.463 1.69067 117.949 1.504 118.471 1.504C119.031 1.504 119.451 1.7 119.731 2.092C120.011 2.46533 120.151 3.05333 120.151 3.856C120.151 4.84533 120.142 5.62933 120.123 6.208C120.105 8.87733 120.114 11.1453 120.151 13.012C120.207 14.8787 120.385 16.6613 120.683 18.36C120.982 20.0587 121.467 21.2533 122.139 21.944C121.523 22.4293 120.805 22.672 119.983 22.672C119.106 22.672 118.425 22.3547 117.939 21.72C117.473 21.0667 117.137 19.984 116.931 18.472C116.745 16.9413 116.651 14.748 116.651 11.892C116.651 10.212 116.651 8.74667 116.651 7.496C116.651 6.22667 116.661 5.144 116.679 4.248H116.343C113.823 8 111.957 11.1453 110.743 13.684C109.53 16.204 108.923 18.1547 108.923 19.536C108.923 20.04 108.951 20.488 109.007 20.88C109.082 21.272 109.185 21.6267 109.315 21.944C108.998 22.1867 108.653 22.364 108.279 22.476C107.906 22.6067 107.486 22.672 107.019 22.672ZM108.643 14.776H118.331L117.967 16.764H108.223L108.643 14.776ZM141.833 22.756C140.527 22.7373 139.481 22.3453 138.697 21.58C137.932 20.8147 137.111 19.2653 136.233 16.932C135.375 14.5987 134.105 10.6133 132.425 4.976H131.109L131.221 1.672C132.267 1.672 133.135 2.05467 133.825 2.82C134.516 3.58533 135.272 5.116 136.093 7.412C136.933 9.68933 138.147 13.4693 139.733 18.752L141.861 18.78L141.833 22.756ZM128.617 22.728C127.927 22.728 127.423 22.5507 127.105 22.196C126.788 21.8413 126.629 21.2627 126.629 20.46C126.629 19.3773 126.779 17.7347 127.077 15.532C127.376 13.3293 127.945 9.67067 128.785 4.556L127.917 2.848C129.168 2.064 130.279 1.672 131.249 1.672C132.071 1.672 132.481 2.16667 132.481 3.156C132.481 3.324 132.397 3.93067 132.229 4.976C132.061 6.00267 131.875 7.15067 131.669 8.42C131.128 11.836 130.727 14.3747 130.465 16.036C130.223 17.6973 130.101 18.864 130.101 19.536C130.101 20.0773 130.157 20.5533 130.269 20.964C130.381 21.3747 130.549 21.72 130.773 22C130.045 22.4853 129.327 22.728 128.617 22.728ZM141.833 22.756C141.143 22.756 140.639 22.5693 140.321 22.196C140.004 21.8413 139.845 21.2627 139.845 20.46C139.845 19.3773 139.995 17.7253 140.293 15.504C140.611 13.2827 141.189 9.63333 142.029 4.556L141.077 2.848C142.347 2.064 143.476 1.672 144.465 1.672C145.287 1.672 145.697 2.16667 145.697 3.156C145.697 3.324 145.613 3.93067 145.445 4.976C145.296 6.00267 145.119 7.14133 144.913 8.392C144.428 11.3413 144.036 13.768 143.737 15.672C143.457 17.576 143.317 18.8733 143.317 19.564C143.317 20.0867 143.373 20.5533 143.485 20.964C143.597 21.3747 143.765 21.7293 143.989 22.028C143.224 22.5133 142.505 22.756 141.833 22.756ZM156.33 22.7C153.922 22.7 152.037 22 150.674 20.6C149.33 19.2 148.658 17.24 148.658 14.72C148.658 12.2747 149.19 10.0627 150.254 8.084C151.337 6.08667 152.793 4.51867 154.622 3.38C156.452 2.24133 158.468 1.672 160.67 1.672C162.014 1.672 163.069 1.88667 163.834 2.316C164.6 2.74533 164.982 3.34267 164.982 4.108C164.982 4.74267 164.73 5.284 164.226 5.732C163.722 6.16133 163.097 6.376 162.35 6.376C161.548 6.376 160.81 6.19867 160.138 5.844C159.485 5.48933 158.953 4.892 158.542 4.052C157.329 4.57467 156.246 5.368 155.294 6.432C154.342 7.496 153.596 8.76533 153.054 10.24C152.513 11.696 152.242 13.264 152.242 14.944C152.242 16.7547 152.597 18.1733 153.306 19.2C154.016 20.2267 154.996 20.74 156.246 20.74C157.198 20.74 158.048 20.5067 158.794 20.04C159.541 19.5547 160.129 18.9013 160.558 18.08C161.006 17.24 161.268 16.3067 161.342 15.28C162.07 15.28 162.63 15.4387 163.022 15.756C163.433 16.0547 163.638 16.54 163.638 17.212C163.638 18.2013 163.302 19.116 162.63 19.956C161.977 20.796 161.09 21.468 159.97 21.972C158.85 22.4573 157.637 22.7 156.33 22.7ZM167.879 28.776C166.572 28.776 165.592 28.5333 164.939 28.048C164.285 27.5813 163.959 26.9467 163.959 26.144C163.959 25.864 164.015 25.5653 164.127 25.248C164.239 24.9493 164.379 24.6693 164.547 24.408C164.995 24.9493 165.517 25.3787 166.115 25.696C166.731 26.0133 167.589 26.172 168.691 26.172C170.371 26.172 172.312 25.444 174.515 23.988C176.736 22.532 178.668 20.236 180.311 17.1C181.953 13.9453 182.775 10.0067 182.775 5.284C182.775 4.68667 182.719 4.164 182.607 3.716C182.513 3.24933 182.345 2.82 182.103 2.428C182.663 2.12933 183.111 1.93333 183.447 1.84C183.801 1.728 184.165 1.672 184.539 1.672C185.061 1.672 185.472 1.896 185.771 2.344C186.088 2.792 186.247 3.39867 186.247 4.164C186.247 7.84133 185.481 11.6027 183.951 15.448C182.42 19.2747 180.255 22.448 177.455 24.968C174.655 27.5067 171.463 28.776 167.879 28.776ZM176.531 22.84C174.72 22.84 173.376 22.336 172.499 21.328C171.64 20.3013 171.099 19.06 170.875 17.604C170.651 16.1293 170.511 14.1507 170.455 11.668C170.399 9.96933 170.324 8.60667 170.231 7.58C170.156 6.55333 169.969 5.58267 169.671 4.668C169.391 3.73467 168.961 2.988 168.383 2.428C169.055 1.924 169.755 1.672 170.483 1.672C171.584 1.672 172.387 2.092 172.891 2.932C173.413 3.772 173.731 4.808 173.843 6.04C173.973 7.25333 174.048 8.91467 174.067 11.024C174.067 13.3013 174.141 15.1307 174.291 16.512C174.44 17.8933 174.832 19.0693 175.467 20.04C176.12 20.992 177.128 21.468 178.491 21.468L176.531 22.84ZM192.91 15.028C192.499 15.028 192.21 14.916 192.042 14.692C191.893 14.468 191.818 14.1413 191.818 13.712C191.818 13.3573 191.883 12.788 192.014 12.004C192.145 11.2013 192.285 10.3707 192.434 9.512C192.733 7.90667 192.947 6.67467 193.078 5.816C193.209 4.93867 193.274 4.18267 193.274 3.548C193.274 3.1 193.237 2.68 193.162 2.288C193.087 1.87733 192.947 1.55067 192.742 1.308C193.097 0.971999 193.507 0.719999 193.974 0.551999C194.459 0.383999 194.982 0.299999 195.542 0.299999C196.27 0.299999 196.802 0.523999 197.138 0.971999C197.493 1.40133 197.67 1.98 197.67 2.708C197.67 3.62267 197.278 5.424 196.494 8.112C195.729 10.8 195.047 12.9 194.45 14.412C194.245 14.6173 193.993 14.776 193.694 14.888C193.395 14.9813 193.134 15.028 192.91 15.028ZM191.706 22.7C191.146 22.7 190.67 22.5133 190.278 22.14C189.905 21.7667 189.718 21.3093 189.718 20.768C189.718 20.3573 189.811 19.9747 189.998 19.62C190.203 19.2467 190.483 18.9573 190.838 18.752C191.193 18.528 191.594 18.416 192.042 18.416C192.621 18.416 193.097 18.6027 193.47 18.976C193.843 19.3493 194.03 19.8067 194.03 20.348C194.03 20.7587 193.927 21.1507 193.722 21.524C193.517 21.8787 193.227 22.1587 192.854 22.364C192.499 22.588 192.117 22.7 191.706 22.7Z" fill="white"/>
</svg>
