<svg width="30" height="30" viewBox="0 0 30 30" fill="none" xmlns="http://www.w3.org/2000/svg">
<path d="M15 13.15C14.4875 13.15 14.0625 12.725 14.0625 12.2125V8.04999C14.0625 7.53749 14.4875 7.11249 15 7.11249C15.5125 7.11249 15.9375 7.53749 15.9375 8.04999V12.2125C15.9375 12.7375 15.5125 13.15 15 13.15Z" fill="white"/>
<path d="M15.025 25.4375C11.8 25.4375 8.58752 24.925 5.52502 23.9C4.38752 23.525 3.52502 22.7125 3.15002 21.6875C2.77502 20.6625 2.90002 19.4875 3.51252 18.4625L5.10002 15.8125C5.45002 15.225 5.76252 14.125 5.76252 13.4375V10.8125C5.76252 5.69999 9.91252 1.54999 15.025 1.54999C20.1375 1.54999 24.2875 5.69999 24.2875 10.8125V13.4375C24.2875 14.1125 24.6 15.225 24.95 15.8125L26.5375 18.4625C27.125 19.4375 27.225 20.6 26.8375 21.6625C26.45 22.725 25.6 23.5375 24.525 23.9C21.4625 24.9375 18.25 25.4375 15.025 25.4375ZM15.025 3.43749C10.95 3.43749 7.63752 6.74999 7.63752 10.825V13.45C7.63752 14.4625 7.23752 15.925 6.71252 16.7875L5.12502 19.45C4.80002 19.9875 4.72502 20.5625 4.91252 21.0625C5.10002 21.5625 5.52502 21.9375 6.12502 22.1375C11.875 24.05 18.2 24.05 23.95 22.1375C24.4875 21.9625 24.9 21.5625 25.0875 21.0375C25.2875 20.5125 25.225 19.9375 24.9375 19.45L23.35 16.8C22.825 15.9375 22.425 14.475 22.425 13.4625V10.8375C22.4125 6.74999 19.1 3.43749 15.025 3.43749Z" fill="white"/>
<path d="M15 28.625C13.6625 28.625 12.35 28.075 11.4 27.125C10.45 26.175 9.90002 24.8625 9.90002 23.525H11.775C11.775 24.375 12.125 25.2 12.725 25.8C13.325 26.4 14.15 26.75 15 26.75C16.775 26.75 18.225 25.3 18.225 23.525H20.1C20.1 26.3375 17.8125 28.625 15 28.625Z" fill="white"/>
</svg>
