<svg width="41" height="40" viewBox="0 0 41 40" fill="none" xmlns="http://www.w3.org/2000/svg">
<rect x="0.78418" width="40" height="40" rx="4" fill="#F1F1F1"/>
<path d="M28.5217 27.1875H15.2092C13.9717 27.1875 12.7842 26.6625 11.9467 25.75C11.1092 24.8375 10.6842 23.6125 10.7842 22.375L11.8217 9.925C11.8592 9.5375 11.7217 9.16251 11.4592 8.87501C11.1967 8.58751 10.8342 8.4375 10.4467 8.4375H8.28418C7.77168 8.4375 7.34668 8.0125 7.34668 7.5C7.34668 6.9875 7.77168 6.5625 8.28418 6.5625H10.4592C11.3717 6.5625 12.2342 6.95 12.8467 7.6125C13.1842 7.9875 13.4342 8.42501 13.5717 8.91251H29.1842C30.4467 8.91251 31.6092 9.4125 32.4592 10.3125C33.2967 11.225 33.7217 12.4125 33.6217 13.675L32.9467 23.05C32.8092 25.3375 30.8092 27.1875 28.5217 27.1875ZM13.6342 10.775L12.6592 22.525C12.5967 23.25 12.8342 23.9375 13.3217 24.475C13.8092 25.0125 14.4842 25.3 15.2092 25.3H28.5217C29.8217 25.3 30.9967 24.2 31.0967 22.9L31.7717 13.525C31.8217 12.7875 31.5842 12.0875 31.0967 11.575C30.6092 11.05 29.9342 10.7625 29.1967 10.7625H13.6342V10.775Z" fill="#1E1E1E"/>
<path d="M26.0967 33.4375C24.7217 33.4375 23.5967 32.3125 23.5967 30.9375C23.5967 29.5625 24.7217 28.4375 26.0967 28.4375C27.4717 28.4375 28.5967 29.5625 28.5967 30.9375C28.5967 32.3125 27.4717 33.4375 26.0967 33.4375ZM26.0967 30.3125C25.7467 30.3125 25.4717 30.5875 25.4717 30.9375C25.4717 31.2875 25.7467 31.5625 26.0967 31.5625C26.4467 31.5625 26.7217 31.2875 26.7217 30.9375C26.7217 30.5875 26.4467 30.3125 26.0967 30.3125Z" fill="#1E1E1E"/>
<path d="M16.0967 33.4375C14.7217 33.4375 13.5967 32.3125 13.5967 30.9375C13.5967 29.5625 14.7217 28.4375 16.0967 28.4375C17.4717 28.4375 18.5967 29.5625 18.5967 30.9375C18.5967 32.3125 17.4717 33.4375 16.0967 33.4375ZM16.0967 30.3125C15.7467 30.3125 15.4717 30.5875 15.4717 30.9375C15.4717 31.2875 15.7467 31.5625 16.0967 31.5625C16.4467 31.5625 16.7217 31.2875 16.7217 30.9375C16.7217 30.5875 16.4467 30.3125 16.0967 30.3125Z" fill="#1E1E1E"/>
<path d="M32.0342 15.9375H17.0342C16.5217 15.9375 16.0967 15.5125 16.0967 15C16.0967 14.4875 16.5217 14.0625 17.0342 14.0625H32.0342C32.5467 14.0625 32.9717 14.4875 32.9717 15C32.9717 15.5125 32.5467 15.9375 32.0342 15.9375Z" fill="#1E1E1E"/>
</svg>
