<svg width="41" height="40" viewBox="0 0 41 40" fill="none" xmlns="http://www.w3.org/2000/svg">
<rect x="0.390808" width="40" height="40" rx="4" fill="#D9D9D9"/>
<path d="M28.1283 27.1875H14.8158C13.5783 27.1875 12.3908 26.6625 11.5533 25.75C10.7158 24.8375 10.2908 23.6125 10.3908 22.375L11.4283 9.925C11.4658 9.5375 11.3283 9.16251 11.0658 8.87501C10.8033 8.58751 10.4408 8.4375 10.0533 8.4375H7.89081C7.37831 8.4375 6.95331 8.0125 6.95331 7.5C6.95331 6.9875 7.37831 6.5625 7.89081 6.5625H10.0658C10.9783 6.5625 11.8408 6.95 12.4533 7.6125C12.7908 7.9875 13.0408 8.42501 13.1783 8.91251H28.7908C30.0533 8.91251 31.2158 9.4125 32.0658 10.3125C32.9033 11.225 33.3283 12.4125 33.2283 13.675L32.5533 23.05C32.4158 25.3375 30.4158 27.1875 28.1283 27.1875ZM13.2408 10.775L12.2658 22.525C12.2033 23.25 12.4408 23.9375 12.9283 24.475C13.4158 25.0125 14.0908 25.3 14.8158 25.3H28.1283C29.4283 25.3 30.6033 24.2 30.7033 22.9L31.3783 13.525C31.4283 12.7875 31.1908 12.0875 30.7033 11.575C30.2158 11.05 29.5408 10.7625 28.8033 10.7625H13.2408V10.775Z" fill="#062940"/>
<path d="M25.7033 33.4375C24.3283 33.4375 23.2033 32.3125 23.2033 30.9375C23.2033 29.5625 24.3283 28.4375 25.7033 28.4375C27.0783 28.4375 28.2033 29.5625 28.2033 30.9375C28.2033 32.3125 27.0783 33.4375 25.7033 33.4375ZM25.7033 30.3125C25.3533 30.3125 25.0783 30.5875 25.0783 30.9375C25.0783 31.2875 25.3533 31.5625 25.7033 31.5625C26.0533 31.5625 26.3283 31.2875 26.3283 30.9375C26.3283 30.5875 26.0533 30.3125 25.7033 30.3125Z" fill="#062940"/>
<path d="M15.7033 33.4375C14.3283 33.4375 13.2033 32.3125 13.2033 30.9375C13.2033 29.5625 14.3283 28.4375 15.7033 28.4375C17.0783 28.4375 18.2033 29.5625 18.2033 30.9375C18.2033 32.3125 17.0783 33.4375 15.7033 33.4375ZM15.7033 30.3125C15.3533 30.3125 15.0783 30.5875 15.0783 30.9375C15.0783 31.2875 15.3533 31.5625 15.7033 31.5625C16.0533 31.5625 16.3283 31.2875 16.3283 30.9375C16.3283 30.5875 16.0533 30.3125 15.7033 30.3125Z" fill="#062940"/>
<path d="M31.6408 15.9375H16.6408C16.1283 15.9375 15.7033 15.5125 15.7033 15C15.7033 14.4875 16.1283 14.0625 16.6408 14.0625H31.6408C32.1533 14.0625 32.5783 14.4875 32.5783 15C32.5783 15.5125 32.1533 15.9375 31.6408 15.9375Z" fill="#062940"/>
</svg>
