<svg width="147" height="24" viewBox="0 0 147 24" fill="none" xmlns="http://www.w3.org/2000/svg">
<path d="M19.576 16.984C19.608 17.208 19.64 17.464 19.64 17.784C19.64 21.624 15.352 23.32 11.736 23.32C4.952 23.32 0.28 17.752 0.28 11.416C0.28 4.664 5.144 0.151999 11.992 0.151999C14.968 0.151999 18.264 1.08 19.64 3.896L19.608 4.248C19.608 5.592 18.648 6.808 17.432 7.448C16.888 4.792 14.872 3.64 12.184 3.64C7.608 3.64 4.792 7.192 4.792 11.544C4.792 16.088 8.12 19.832 12.888 19.832C15.352 19.832 17.816 18.84 19.576 16.984ZM29.6818 23.32C24.6898 23.32 21.5538 19.544 21.5538 15C21.5538 10.296 24.5298 6.648 29.6818 6.648C34.8018 6.648 37.8418 10.328 37.8418 15C37.8418 19.576 34.6418 23.32 29.6818 23.32ZM29.6818 20.44C32.4978 20.44 33.7778 17.816 33.7778 15C33.7778 12.28 32.4338 9.528 29.6818 9.528C26.8978 9.528 25.6178 12.216 25.6178 15C25.6178 17.72 26.9618 20.44 29.6818 20.44ZM44.0605 11.256C44.0605 14.392 52.6685 13.208 52.6685 18.616C52.6685 21.912 49.2125 23.32 46.3325 23.32C44.7325 23.32 41.5965 22.776 40.5725 21.592C39.9965 20.888 39.9325 19.704 39.7725 18.872C41.4045 19.992 43.3565 20.696 45.2125 20.696C46.5245 20.696 48.6365 20.28 48.6365 18.712C48.6365 15.736 39.9965 16.728 39.9965 11.192C39.9965 7.736 43.5805 6.648 46.4925 6.648C48.3805 6.648 50.6845 7.032 51.8685 8.696V8.888C51.8685 10.008 51.5165 11.096 50.7485 11.8C50.3645 10.072 48.3805 9.368 46.8445 9.368C45.6605 9.368 44.0605 9.848 44.0605 11.256ZM55.225 23V8.76C57.113 7.512 60.121 6.648 62.425 6.648C64.185 6.648 65.785 7.16 67.001 8.216C68.601 7.288 70.649 6.68 72.505 6.68C75.897 6.68 78.393 8.984 78.393 12.536V21.976C77.241 22.68 76.057 23.032 74.393 23.032V12.824C74.393 10.936 73.561 9.592 71.577 9.592C70.457 9.592 69.401 9.944 68.505 10.584C68.697 11.192 68.825 11.864 68.825 12.536V21.944C67.673 22.648 66.489 23 64.825 23V12.792C64.825 10.904 64.025 9.56 62.073 9.56C61.049 9.56 60.089 9.88 59.225 10.36V22.04C58.361 22.808 56.697 23 55.225 23ZM89.088 23.32C84.096 23.32 80.96 19.544 80.96 15C80.96 10.296 83.936 6.648 89.088 6.648C94.208 6.648 97.248 10.328 97.248 15C97.248 19.576 94.048 23.32 89.088 23.32ZM89.088 20.44C91.904 20.44 93.184 17.816 93.184 15C93.184 12.28 91.84 9.528 89.088 9.528C86.304 9.528 85.024 12.216 85.024 15C85.024 17.72 86.368 20.44 89.088 20.44ZM103.674 14.552L98.5538 7.288C99.3538 7.128 100.378 7 101.274 7C102.266 7 103.194 7.64 103.706 8.376L106.01 11.896L108.378 8.376C108.858 7.608 109.658 7 110.682 7C111.578 7 112.698 7.096 113.498 7.288L108.378 14.552L114.138 22.68C113.434 22.872 112.41 23 111.61 23C110.394 23 109.626 22.552 108.986 21.624L106.01 17.24L103.066 21.624C102.394 22.584 101.594 23 100.346 23C99.5778 23 98.5858 22.872 97.9138 22.68L103.674 14.552ZM116.069 23V19.224C117.285 18.36 118.757 18.232 120.165 18.232V22.04C118.917 22.776 117.541 23 116.069 23ZM123.35 5.4V1.624C124.534 0.855999 125.942 0.727999 127.35 0.727999V4.504C126.102 5.208 124.79 5.4 123.35 5.4ZM123.35 23V8.024C124.534 7.16 125.942 7 127.35 7V21.976C126.102 22.776 124.79 23 123.35 23ZM138.026 23.32C133.034 23.32 129.898 19.544 129.898 15C129.898 10.296 132.874 6.648 138.026 6.648C143.146 6.648 146.186 10.328 146.186 15C146.186 19.576 142.986 23.32 138.026 23.32ZM138.026 20.44C140.842 20.44 142.122 17.816 142.122 15C142.122 12.28 140.778 9.528 138.026 9.528C135.242 9.528 133.962 12.216 133.962 15C133.962 17.72 135.306 20.44 138.026 20.44Z" fill="white"/>
</svg>
